<svg width="297" height="206" viewBox="0 0 297 206" fill="none" xmlns="http://www.w3.org/2000/svg">
<path fill-rule="evenodd" clip-rule="evenodd" d="M178.588 6.28571C179.839 6.28571 180.806 5.98965 181.489 5.39752C182.171 4.80538 182.512 4.05383 182.512 3.14286C182.512 2.20911 182.182 1.45186 181.523 0.871118C180.863 0.290373 179.885 0 178.588 0C177.291 0 176.313 0.290373 175.653 0.871118C174.994 1.45186 174.664 2.20911 174.664 3.14286C174.664 4.05383 175.005 4.80538 175.688 5.39752C176.37 5.98965 177.337 6.28571 178.588 6.28571ZM70.6495 24.2376C69.1708 25.2283 67.3054 25.7236 65.0532 25.7236C60.3214 25.7236 57.637 23.7992 57 19.9503L62.1186 18.7888C62.4371 20.2464 63.4153 20.9752 65.0532 20.9752C66.1679 20.9752 66.7253 20.6791 66.7253 20.087C66.7253 19.882 66.6514 19.7169 66.5035 19.5916C66.3556 19.4664 66.0314 19.3126 65.531 19.1304L63.4835 18.3789L62.9034 18.1739C62.4939 18.0373 62.1698 17.9177 61.9309 17.8152C61.692 17.7127 61.3451 17.5476 60.8901 17.3199C60.4351 17.0921 60.0598 16.8473 59.764 16.5854C59.4683 16.3235 59.1612 16.016 58.8427 15.663C58.5242 15.31 58.2853 14.9001 58.1261 14.4332C57.9668 13.9664 57.8872 13.4596 57.8872 12.913C57.8872 11.1594 58.5811 9.73602 59.9688 8.64286C61.3565 7.54969 63.0968 7.00311 65.1897 7.00311C68.6931 7.00311 71.059 8.52899 72.2875 11.5807L67.203 13.0155C66.748 12.059 66.0542 11.5807 65.1215 11.5807C64.3707 11.5807 63.9954 11.8654 63.9954 12.4348C63.9954 12.6398 64.0864 12.8106 64.2684 12.9472C64.4504 13.0839 64.7575 13.2205 65.1897 13.3571L67.1689 14.177C70.8543 15.4524 72.7538 17.3654 72.8676 19.9161C72.8676 21.8064 72.1282 23.2469 70.6495 24.2376ZM86.0345 23.1273C84.9653 24.8582 83.3046 25.7236 81.0524 25.7236C76.8893 25.7236 74.8078 23.1159 74.8078 17.9006V7.37888H81.8373V17.2174C81.8373 19.2443 82.5425 20.2578 83.9529 20.2578C85.3406 20.2578 86.0345 19.2443 86.0345 17.2174V7.37888H93.064V25.3478H86.0345V23.1273ZM103.194 25.3478V15.5093C103.194 13.4824 103.888 12.4689 105.275 12.4689C106.686 12.4689 107.391 13.4824 107.391 15.5093V25.3478H114.421V14.8261C114.421 9.61077 112.339 7.00311 108.176 7.00311C105.924 7.00311 104.263 7.86853 103.194 9.59938V7.37888H96.1644V25.3478H103.194ZM124.346 15.5093V25.3478H117.316V7.37888H124.346V9.59938C125.415 7.86853 127.076 7.00311 129.328 7.00311C133.491 7.00311 135.573 9.61077 135.573 14.8261V25.3478H128.543V15.5093C128.543 13.4824 127.838 12.4689 126.427 12.4689C125.04 12.4689 124.346 13.4824 124.346 15.5093ZM146.317 33L157.714 7.37888H150.377L146.897 16.5683L143.791 7.37888H136.114L143.587 23.6056L139.424 33H146.317ZM170.71 24.2376C169.232 25.2283 167.366 25.7236 165.114 25.7236C160.382 25.7236 157.698 23.7992 157.061 19.9503L162.179 18.7888C162.498 20.2464 163.476 20.9752 165.114 20.9752C166.229 20.9752 166.786 20.6791 166.786 20.087C166.786 19.882 166.712 19.7169 166.564 19.5916C166.416 19.4664 166.092 19.3126 165.592 19.1304L163.544 18.3789L162.964 18.1739C162.555 18.0373 162.231 17.9177 161.992 17.8152C161.753 17.7127 161.406 17.5476 160.951 17.3199C160.496 17.0921 160.121 16.8473 159.825 16.5854C159.529 16.3235 159.222 16.016 158.903 15.663C158.585 15.31 158.346 14.9001 158.187 14.4332C158.028 13.9664 157.948 13.4596 157.948 12.913C157.948 11.1594 158.642 9.73602 160.03 8.64286C161.417 7.54969 163.158 7.00311 165.251 7.00311C168.754 7.00311 171.12 8.52899 172.348 11.5807L167.264 13.0155C166.809 12.059 166.115 11.5807 165.182 11.5807C164.432 11.5807 164.056 11.8654 164.056 12.4348C164.056 12.6398 164.147 12.8106 164.329 12.9472C164.511 13.0839 164.818 13.2205 165.251 13.3571L167.23 14.177C170.915 15.4524 172.815 17.3654 172.928 19.9161C172.928 21.8064 172.189 23.2469 170.71 24.2376ZM182.103 7.37888V25.3478H175.073V7.37888H182.103ZM192.745 25.7236C195.133 25.7236 196.839 24.8582 197.863 23.1273V25.3478H204.893V0.649068H197.863V9.63354C196.839 7.87992 195.133 7.00311 192.745 7.00311C190.333 7.00311 188.326 7.88561 186.722 9.65062C185.118 11.4156 184.316 13.6532 184.316 16.3634C184.316 19.0735 185.118 21.3111 186.722 23.0761C188.326 24.8411 190.333 25.7236 192.745 25.7236ZM192.25 19.2329C192.853 19.9845 193.655 20.3602 194.656 20.3602C195.656 20.3602 196.458 19.9845 197.061 19.2329C197.664 18.4814 197.966 17.5248 197.966 16.3634C197.966 15.2019 197.664 14.2453 197.061 13.4938C196.458 12.7422 195.656 12.3665 194.656 12.3665C193.655 12.3665 192.847 12.7422 192.233 13.4938C191.641 14.2453 191.345 15.2019 191.345 16.3634C191.345 17.5248 191.647 18.4814 192.25 19.2329ZM217.616 25.7236C221.188 25.7236 223.974 24.6874 225.976 22.6149L223.076 18.7205C221.643 19.882 220.027 20.4627 218.23 20.4627C216.865 20.4627 215.756 20.1553 214.903 19.5404C214.05 18.9255 213.623 18.3333 213.623 17.764H226.829C226.943 17.354 227 16.8188 227 16.1584C227 13.3344 226.073 11.1025 224.219 9.46273C222.365 7.82298 219.993 7.00311 217.104 7.00311C214.01 7.00311 211.565 7.92547 209.767 9.77019C207.97 11.6149 207.072 13.8354 207.072 16.4317C207.072 19.0963 208.021 21.3111 209.921 23.0761C211.821 24.8411 214.386 25.7236 217.616 25.7236ZM214.715 12.5885C214.033 13.0326 213.669 13.676 213.623 14.5186H220.653C220.607 13.6988 220.243 13.0611 219.561 12.6056C218.879 12.1501 218.071 11.9224 217.138 11.9224C216.205 11.9224 215.398 12.1444 214.715 12.5885Z" fill="#2C7566"/>
<path d="M9.198 93H10.836C11.034 93 11.124 92.874 11.07 92.676L7.2 80.634C7.146 80.472 7.038 80.4 6.876 80.4H4.77C4.608 80.4 4.5 80.472 4.446 80.634L0.594 92.676C0.54 92.874 0.63 93 0.828 93H2.466C2.628 93 2.736 92.928 2.79 92.766L3.348 90.912C3.366 90.84 3.42 90.822 3.474 90.822H8.19C8.244 90.822 8.298 90.84 8.316 90.912L8.874 92.766C8.928 92.928 9.036 93 9.198 93ZM3.906 89.058L5.76 82.938C5.796 82.848 5.868 82.848 5.904 82.938L7.758 89.058C7.776 89.148 7.74 89.184 7.668 89.184H3.996C3.924 89.184 3.888 89.148 3.906 89.058ZM20.4173 86.178C19.8953 84.63 18.7253 83.658 16.9433 83.658C16.0613 83.658 15.3953 83.982 14.8913 84.54C14.8373 84.612 14.7653 84.594 14.7653 84.504V80.688C14.7653 80.508 14.6573 80.4 14.4773 80.4H12.9653C12.7853 80.4 12.6773 80.508 12.6773 80.688V92.712C12.6773 92.892 12.7853 93 12.9653 93H14.4773C14.6573 93 14.7653 92.892 14.7653 92.712V92.244C14.7653 92.154 14.8373 92.118 14.8913 92.208C15.3773 92.802 16.0613 93.144 16.9433 93.144C18.6713 93.144 19.8773 92.154 20.3993 90.624C20.6153 89.958 20.7233 89.202 20.7233 88.374C20.7233 87.564 20.6333 86.826 20.4173 86.178ZM18.1313 90.462C17.8253 91.02 17.3033 91.326 16.6193 91.326C15.9893 91.326 15.5393 91.02 15.2153 90.48C14.9273 89.994 14.8013 89.256 14.8013 88.392C14.8013 87.474 14.9453 86.754 15.2513 86.25C15.5573 85.746 16.0073 85.458 16.6013 85.458C17.2313 85.458 17.7173 85.728 18.0413 86.214C18.3833 86.736 18.5633 87.474 18.5633 88.41C18.5633 89.256 18.4193 89.958 18.1313 90.462ZM26.3688 93.144C28.2228 93.144 29.6448 92.118 30.1848 90.408C30.3828 89.814 30.4908 89.058 30.4908 88.356C30.4908 87.636 30.3828 86.88 30.1668 86.304C29.6088 84.648 28.2228 83.658 26.3868 83.658C24.4608 83.658 23.0208 84.648 22.4808 86.322C22.3008 86.88 22.1928 87.636 22.1928 88.374C22.1928 89.094 22.3008 89.85 22.4988 90.426C23.0208 92.118 24.4788 93.144 26.3688 93.144ZM26.3688 91.344C25.4328 91.344 24.7488 90.804 24.4788 89.904C24.3708 89.526 24.2988 88.95 24.2988 88.392C24.2988 87.798 24.3708 87.258 24.4788 86.88C24.7488 85.98 25.4148 85.458 26.3328 85.458C27.2508 85.458 27.9348 85.98 28.2048 86.88C28.3128 87.258 28.3848 87.798 28.3848 88.392C28.3848 88.932 28.3308 89.49 28.1868 89.904C27.9168 90.804 27.2508 91.344 26.3688 91.344ZM37.7718 84.09V89.49C37.7718 90.606 37.0698 91.344 35.9898 91.344C34.9098 91.344 34.3158 90.606 34.3158 89.49V84.09C34.3158 83.91 34.2078 83.802 34.0278 83.802H32.5158C32.3358 83.802 32.2278 83.91 32.2278 84.09V90.084C32.2278 92.118 33.7398 93.126 35.4498 93.126C36.4578 93.126 37.1778 92.802 37.6458 92.208C37.6998 92.118 37.7718 92.154 37.7718 92.244V92.712C37.7718 92.892 37.8798 93 38.0598 93H39.5538C39.7338 93 39.8418 92.892 39.8418 92.712V84.09C39.8418 83.91 39.7338 83.802 39.5538 83.802H38.0598C37.8798 83.802 37.7718 83.91 37.7718 84.09ZM46.8235 85.206V84.09C46.8235 83.91 46.7155 83.802 46.5355 83.802H44.7895C44.7175 83.802 44.6815 83.748 44.6815 83.694V81.678C44.6815 81.498 44.5735 81.39 44.3935 81.39H42.9715C42.7915 81.39 42.6835 81.498 42.6835 81.678V83.694C42.6835 83.766 42.6475 83.802 42.5755 83.802H41.6395C41.4595 83.802 41.3515 83.91 41.3515 84.09V85.206C41.3515 85.386 41.4595 85.494 41.6395 85.494H42.5755C42.6475 85.494 42.6835 85.548 42.6835 85.602V90.642C42.7015 92.55 43.7995 92.982 45.5275 92.982C45.8155 92.982 46.1035 92.964 46.3915 92.964C46.5895 92.946 46.6795 92.838 46.6795 92.658V91.452C46.6795 91.272 46.5715 91.164 46.3915 91.164H45.9235C45.0775 91.164 44.6815 90.786 44.6815 89.85V85.602C44.6815 85.53 44.7175 85.494 44.7895 85.494H46.5355C46.7155 85.494 46.8235 85.386 46.8235 85.206Z" fill="#458D7E"/>
<path d="M110.364 93.144C113.136 93.144 114.828 91.722 114.828 89.616C114.828 87.312 112.758 86.556 110.922 85.854C108.852 85.098 107.988 84.738 107.988 83.64C107.988 82.632 108.744 82.056 110.076 82.056C111.768 82.056 112.686 82.992 112.686 84.072V84.27C112.686 84.396 112.794 84.486 112.974 84.486H114.45C114.63 84.486 114.738 84.378 114.738 84.198V83.964C114.738 81.75 112.902 80.256 110.166 80.256C107.628 80.256 105.936 81.534 105.936 83.676C105.936 85.962 107.88 86.736 109.86 87.456C111.804 88.212 112.74 88.626 112.74 89.67C112.74 90.588 112.074 91.344 110.526 91.344C108.87 91.344 107.862 90.48 107.862 89.418V89.13C107.862 88.95 107.754 88.86 107.574 88.86H106.098C105.918 88.86 105.81 88.968 105.81 89.148V89.526C105.81 91.722 107.592 93.144 110.364 93.144ZM120.727 91.38C119.611 91.38 118.837 90.858 118.585 90.012C118.513 89.814 118.477 89.544 118.477 89.22C118.477 89.148 118.513 89.112 118.585 89.112H124.165C124.345 89.112 124.453 89.004 124.453 88.824C124.435 88.302 124.399 87.798 124.327 87.348C123.967 85.062 122.797 83.658 120.385 83.658C118.459 83.658 117.037 84.756 116.587 86.448C116.425 86.988 116.389 87.564 116.389 88.356C116.389 89.184 116.515 89.94 116.749 90.588C117.307 92.154 118.585 93.144 120.529 93.144C122.113 93.144 123.337 92.46 124.021 91.38C124.129 91.218 124.075 91.092 123.949 90.984L123.085 90.3C122.941 90.192 122.797 90.228 122.689 90.39C122.293 90.966 121.627 91.344 120.727 91.38ZM120.367 85.458C121.339 85.458 121.987 85.998 122.203 86.826C122.257 86.988 122.275 87.204 122.311 87.474C122.311 87.546 122.275 87.582 122.203 87.582H118.585C118.513 87.582 118.477 87.546 118.495 87.474C118.513 87.168 118.567 86.934 118.639 86.718C118.855 85.962 119.431 85.458 120.367 85.458ZM130.516 83.694C129.58 83.694 128.896 84.126 128.428 84.828C128.374 84.918 128.32 84.882 128.32 84.792V84.09C128.32 83.91 128.212 83.802 128.032 83.802H126.52C126.34 83.802 126.232 83.91 126.232 84.09V92.712C126.232 92.892 126.34 93 126.52 93H128.032C128.212 93 128.32 92.892 128.32 92.712V87.69C128.32 86.592 129.112 85.926 130.084 85.872C130.444 85.818 130.768 85.854 131.002 85.926C131.2 85.98 131.308 85.944 131.344 85.746L131.632 84.252C131.668 84.09 131.614 83.964 131.47 83.892C131.236 83.784 130.948 83.694 130.516 83.694ZM135.726 93H137.472C137.634 93 137.742 92.928 137.796 92.766L140.622 84.144C140.694 83.946 140.586 83.82 140.388 83.82L138.696 83.802C138.534 83.802 138.426 83.874 138.372 84.054L136.662 90.012C136.626 90.102 136.554 90.102 136.518 90.012L134.808 84.036C134.754 83.874 134.646 83.802 134.484 83.802H132.792C132.594 83.802 132.486 83.91 132.558 84.126L135.402 92.766C135.456 92.928 135.564 93 135.726 93ZM143.299 82.65C144.091 82.65 144.631 82.11 144.631 81.336C144.631 80.58 144.091 80.04 143.299 80.04C142.507 80.04 141.949 80.58 141.949 81.336C141.949 82.11 142.507 82.65 143.299 82.65ZM142.543 93H144.055C144.235 93 144.343 92.892 144.343 92.712V84.09C144.343 83.91 144.235 83.802 144.055 83.802H142.543C142.363 83.802 142.255 83.91 142.255 84.09V92.712C142.255 92.892 142.363 93 142.543 93ZM150.405 93.144C152.259 93.144 153.771 92.19 154.239 90.642C154.275 90.516 154.293 90.39 154.311 90.282C154.347 90.102 154.257 89.994 154.077 89.958L152.583 89.724C152.403 89.688 152.259 89.886 152.241 89.976C152.241 89.976 152.241 90.012 152.223 90.066C152.025 90.84 151.323 91.344 150.405 91.344C149.451 91.344 148.821 90.804 148.587 89.976C148.497 89.634 148.425 89.112 148.425 88.374C148.425 87.672 148.497 87.114 148.605 86.772C148.821 85.98 149.469 85.458 150.405 85.458C151.377 85.458 152.079 86.034 152.241 86.736L152.295 86.97C152.331 87.132 152.439 87.222 152.619 87.186L154.113 86.952C154.293 86.916 154.383 86.826 154.347 86.628C154.329 86.502 154.311 86.322 154.239 86.124C153.807 84.738 152.331 83.658 150.405 83.658C148.551 83.658 147.111 84.648 146.607 86.232C146.427 86.754 146.319 87.42 146.319 88.356C146.319 89.184 146.391 89.904 146.607 90.516C147.129 92.118 148.551 93.144 150.405 93.144ZM160.039 91.38C158.923 91.38 158.149 90.858 157.897 90.012C157.825 89.814 157.789 89.544 157.789 89.22C157.789 89.148 157.825 89.112 157.897 89.112H163.477C163.657 89.112 163.765 89.004 163.765 88.824C163.747 88.302 163.711 87.798 163.639 87.348C163.279 85.062 162.109 83.658 159.697 83.658C157.771 83.658 156.349 84.756 155.899 86.448C155.737 86.988 155.701 87.564 155.701 88.356C155.701 89.184 155.827 89.94 156.061 90.588C156.619 92.154 157.897 93.144 159.841 93.144C161.425 93.144 162.649 92.46 163.333 91.38C163.441 91.218 163.387 91.092 163.261 90.984L162.397 90.3C162.253 90.192 162.109 90.228 162.001 90.39C161.605 90.966 160.939 91.344 160.039 91.38ZM159.679 85.458C160.651 85.458 161.299 85.998 161.515 86.826C161.569 86.988 161.587 87.204 161.623 87.474C161.623 87.546 161.587 87.582 161.515 87.582H157.897C157.825 87.582 157.789 87.546 157.807 87.474C157.825 87.168 157.879 86.934 157.951 86.718C158.167 85.962 158.743 85.458 159.679 85.458ZM168.982 93.108C171.196 93.108 172.672 92.1 172.672 90.372C172.672 88.572 170.998 88.014 169.504 87.582C168.298 87.24 167.29 87.06 167.29 86.322C167.29 85.674 167.956 85.332 168.874 85.332C169.954 85.332 170.584 85.836 170.584 86.43V86.538C170.584 86.61 170.692 86.646 170.872 86.646H172.258C172.438 86.646 172.546 86.556 172.546 86.43C172.546 84.828 171.088 83.694 168.874 83.694C166.75 83.694 165.292 84.738 165.292 86.448C165.292 88.212 166.894 88.788 168.334 89.22C169.522 89.616 170.584 89.742 170.584 90.498C170.584 91.092 169.936 91.542 168.964 91.542C167.92 91.542 167.218 91.02 167.218 90.426V90.3C167.218 90.228 167.11 90.174 166.93 90.174H165.49C165.31 90.174 165.202 90.282 165.202 90.462V90.552C165.202 92.01 166.678 93.108 168.982 93.108Z" fill="#458D7E"/>
<path d="M237.372 80.382H232.494C232.314 80.382 232.206 80.49 232.206 80.67V92.712C232.206 92.892 232.314 93 232.494 93H234.006C234.186 93 234.294 92.892 234.294 92.712V87.96C234.294 87.888 234.348 87.852 234.402 87.852H237.264C239.622 87.852 241.188 86.376 241.188 84.144C241.188 81.894 239.658 80.382 237.372 80.382ZM237.066 86.16H234.402C234.33 86.16 234.294 86.106 234.294 86.052V82.29C234.294 82.218 234.348 82.182 234.402 82.182H237.066C238.29 82.182 239.1 82.992 239.1 84.198C239.1 85.368 238.29 86.16 237.066 86.16ZM246.977 83.694C246.041 83.694 245.357 84.126 244.889 84.828C244.835 84.918 244.781 84.882 244.781 84.792V84.09C244.781 83.91 244.673 83.802 244.493 83.802H242.981C242.801 83.802 242.693 83.91 242.693 84.09V92.712C242.693 92.892 242.801 93 242.981 93H244.493C244.673 93 244.781 92.892 244.781 92.712V87.69C244.781 86.592 245.573 85.926 246.545 85.872C246.905 85.818 247.229 85.854 247.463 85.926C247.661 85.98 247.769 85.944 247.805 85.746L248.093 84.252C248.129 84.09 248.075 83.964 247.931 83.892C247.697 83.784 247.409 83.694 246.977 83.694ZM253.08 93.144C254.934 93.144 256.356 92.118 256.896 90.408C257.094 89.814 257.202 89.058 257.202 88.356C257.202 87.636 257.094 86.88 256.878 86.304C256.32 84.648 254.934 83.658 253.098 83.658C251.172 83.658 249.732 84.648 249.192 86.322C249.012 86.88 248.904 87.636 248.904 88.374C248.904 89.094 249.012 89.85 249.21 90.426C249.732 92.118 251.19 93.144 253.08 93.144ZM253.08 91.344C252.144 91.344 251.46 90.804 251.19 89.904C251.082 89.526 251.01 88.95 251.01 88.392C251.01 87.798 251.082 87.258 251.19 86.88C251.46 85.98 252.126 85.458 253.044 85.458C253.962 85.458 254.646 85.98 254.916 86.88C255.024 87.258 255.096 87.798 255.096 88.392C255.096 88.932 255.042 89.49 254.898 89.904C254.628 90.804 253.962 91.344 253.08 91.344ZM260.181 82.704C260.991 82.704 261.549 82.128 261.549 81.39C261.549 80.652 260.919 80.094 260.181 80.094C259.479 80.094 258.849 80.652 258.849 81.39C258.849 82.128 259.389 82.704 260.181 82.704ZM257.301 96.69C260.271 96.726 261.225 95.808 261.225 93.288V84.09C261.225 83.91 261.117 83.802 260.937 83.802H259.425C259.245 83.802 259.137 83.91 259.137 84.09V93.306C259.137 94.44 258.633 94.944 257.319 94.944C257.121 94.926 257.013 95.034 257.013 95.214V96.402C257.013 96.582 257.121 96.69 257.301 96.69ZM267.452 91.38C266.336 91.38 265.562 90.858 265.31 90.012C265.238 89.814 265.202 89.544 265.202 89.22C265.202 89.148 265.238 89.112 265.31 89.112H270.89C271.07 89.112 271.178 89.004 271.178 88.824C271.16 88.302 271.124 87.798 271.052 87.348C270.692 85.062 269.522 83.658 267.11 83.658C265.184 83.658 263.762 84.756 263.312 86.448C263.15 86.988 263.114 87.564 263.114 88.356C263.114 89.184 263.24 89.94 263.474 90.588C264.032 92.154 265.31 93.144 267.254 93.144C268.838 93.144 270.062 92.46 270.746 91.38C270.854 91.218 270.8 91.092 270.674 90.984L269.81 90.3C269.666 90.192 269.522 90.228 269.414 90.39C269.018 90.966 268.352 91.344 267.452 91.38ZM267.092 85.458C268.064 85.458 268.712 85.998 268.928 86.826C268.982 86.988 269 87.204 269.036 87.474C269.036 87.546 269 87.582 268.928 87.582H265.31C265.238 87.582 265.202 87.546 265.22 87.474C265.238 87.168 265.292 86.934 265.364 86.718C265.58 85.962 266.156 85.458 267.092 85.458ZM276.792 93.144C278.646 93.144 280.158 92.19 280.626 90.642C280.662 90.516 280.68 90.39 280.698 90.282C280.734 90.102 280.644 89.994 280.464 89.958L278.97 89.724C278.79 89.688 278.646 89.886 278.628 89.976C278.628 89.976 278.628 90.012 278.61 90.066C278.412 90.84 277.71 91.344 276.792 91.344C275.838 91.344 275.208 90.804 274.974 89.976C274.884 89.634 274.812 89.112 274.812 88.374C274.812 87.672 274.884 87.114 274.992 86.772C275.208 85.98 275.856 85.458 276.792 85.458C277.764 85.458 278.466 86.034 278.628 86.736L278.682 86.97C278.718 87.132 278.826 87.222 279.006 87.186L280.5 86.952C280.68 86.916 280.77 86.826 280.734 86.628C280.716 86.502 280.698 86.322 280.626 86.124C280.194 84.738 278.718 83.658 276.792 83.658C274.938 83.658 273.498 84.648 272.994 86.232C272.814 86.754 272.706 87.42 272.706 88.356C272.706 89.184 272.778 89.904 272.994 90.516C273.516 92.118 274.938 93.144 276.792 93.144ZM287.269 85.206V84.09C287.269 83.91 287.161 83.802 286.981 83.802H285.235C285.163 83.802 285.127 83.748 285.127 83.694V81.678C285.127 81.498 285.019 81.39 284.839 81.39H283.417C283.237 81.39 283.129 81.498 283.129 81.678V83.694C283.129 83.766 283.093 83.802 283.021 83.802H282.085C281.905 83.802 281.797 83.91 281.797 84.09V85.206C281.797 85.386 281.905 85.494 282.085 85.494H283.021C283.093 85.494 283.129 85.548 283.129 85.602V90.642C283.147 92.55 284.245 92.982 285.973 92.982C286.261 92.982 286.549 92.964 286.837 92.964C287.035 92.946 287.125 92.838 287.125 92.658V91.452C287.125 91.272 287.017 91.164 286.837 91.164H286.369C285.523 91.164 285.127 90.786 285.127 89.85V85.602C285.127 85.53 285.163 85.494 285.235 85.494H286.981C287.161 85.494 287.269 85.386 287.269 85.206ZM292.433 93.108C294.647 93.108 296.123 92.1 296.123 90.372C296.123 88.572 294.449 88.014 292.955 87.582C291.749 87.24 290.741 87.06 290.741 86.322C290.741 85.674 291.407 85.332 292.325 85.332C293.405 85.332 294.035 85.836 294.035 86.43V86.538C294.035 86.61 294.143 86.646 294.323 86.646H295.709C295.889 86.646 295.997 86.556 295.997 86.43C295.997 84.828 294.539 83.694 292.325 83.694C290.201 83.694 288.743 84.738 288.743 86.448C288.743 88.212 290.345 88.788 291.785 89.22C292.973 89.616 294.035 89.742 294.035 90.498C294.035 91.092 293.387 91.542 292.415 91.542C291.371 91.542 290.669 91.02 290.669 90.426V90.3C290.669 90.228 290.561 90.174 290.381 90.174H288.941C288.761 90.174 288.653 90.282 288.653 90.462V90.552C288.653 92.01 290.129 93.108 292.433 93.108Z" fill="#458D7E"/>
<path d="M83.8958 186H66.1042C65.4942 186 65 186.494 65 187.104V204.897C65 205.506 65.4942 206 66.1042 206H75.6833V198.255H73.0767V195.237H75.6833V193.011C75.6833 190.428 77.2608 189.021 79.5658 189.021C80.67 189.021 81.6183 189.103 81.895 189.14V191.84L80.2967 191.841C79.0433 191.841 78.8008 192.437 78.8008 193.31V195.238H81.79L81.4008 198.256H78.8008V206H83.8975C84.5058 206 85 205.506 85 204.896V187.104C85 186.494 84.5058 186 83.8958 186Z" fill="#2C7566"/>
<path fill-rule="evenodd" clip-rule="evenodd" d="M123 186C120.284 186 119.944 186.012 118.878 186.06C115.246 186.227 113.228 188.242 113.061 191.877C113.012 192.944 113 193.284 113 196C113 198.716 113.012 199.057 113.06 200.123C113.227 203.755 115.242 205.773 118.877 205.94C119.944 205.988 120.284 206 123 206C125.716 206 126.057 205.988 127.123 205.94C130.752 205.773 132.775 203.758 132.939 200.123C132.988 199.057 133 198.716 133 196C133 193.284 132.988 192.944 132.94 191.878C132.777 188.249 130.759 186.228 127.124 186.061C126.057 186.012 125.716 186 123 186ZM123 187.803C125.67 187.803 125.987 187.812 127.042 187.861C129.752 187.984 131.017 189.27 131.141 191.96C131.189 193.014 131.198 193.331 131.198 196.001C131.198 198.672 131.188 198.987 131.141 200.042C131.017 202.729 129.754 204.017 127.042 204.141C125.987 204.189 125.672 204.199 123 204.199C120.33 204.199 120.013 204.189 118.959 204.141C116.242 204.017 114.983 202.725 114.86 200.041C114.812 198.987 114.802 198.671 114.802 196C114.802 193.33 114.812 193.014 114.86 191.959C114.984 189.27 116.247 187.983 118.959 187.86C120.014 187.812 120.33 187.803 123 187.803ZM117.865 196C117.865 193.164 120.164 190.865 123 190.865C125.836 190.865 128.135 193.164 128.135 196C128.135 198.837 125.836 201.136 123 201.136C120.164 201.136 117.865 198.836 117.865 196ZM123 199.333C121.159 199.333 119.667 197.842 119.667 196C119.667 194.159 121.159 192.667 123 192.667C124.841 192.667 126.333 194.159 126.333 196C126.333 197.842 124.841 199.333 123 199.333ZM127.137 190.663C127.137 190 127.675 189.463 128.338 189.463C129.001 189.463 129.538 190 129.538 190.663C129.538 191.325 129.001 191.863 128.338 191.863C127.675 191.863 127.137 191.325 127.137 190.663Z" fill="#2C7566"/>
<path d="M219 186C213.477 186 209 190.477 209 196C209 200.237 211.636 203.855 215.356 205.312C215.268 204.521 215.189 203.307 215.391 202.444C215.573 201.663 216.563 197.473 216.563 197.473C216.563 197.473 216.264 196.874 216.264 195.988C216.264 194.598 217.07 193.56 218.073 193.56C218.926 193.56 219.338 194.201 219.338 194.968C219.338 195.826 218.793 197.108 218.51 198.297C218.274 199.292 219.009 200.105 219.991 200.105C221.768 200.105 223.134 198.231 223.134 195.526C223.134 193.132 221.414 191.457 218.958 191.457C216.113 191.457 214.443 193.592 214.443 195.797C214.443 196.656 214.773 197.578 215.187 198.078C215.268 198.177 215.28 198.265 215.256 198.366L214.978 199.499C214.934 199.682 214.833 199.722 214.643 199.633C213.394 199.052 212.613 197.226 212.613 195.759C212.613 192.605 214.905 189.707 219.221 189.707C222.69 189.707 225.386 192.18 225.386 195.483C225.386 198.93 223.213 201.703 220.197 201.703C219.183 201.703 218.231 201.178 217.905 200.555L217.282 202.933C217.056 203.802 216.447 204.891 216.038 205.554C216.975 205.843 217.969 206 219 206C224.523 206 229 201.523 229 196C229 190.477 224.523 186 219 186Z" fill="#2C7566"/>
<path d="M181 190.172C180.264 190.499 179.473 190.719 178.643 190.818C179.491 190.311 180.142 189.506 180.448 188.548C179.655 189.018 178.777 189.36 177.842 189.544C177.094 188.746 176.027 188.248 174.847 188.248C172.197 188.248 170.251 190.72 170.849 193.286C167.44 193.115 164.417 191.481 162.393 188.999C161.317 190.843 161.835 193.256 163.662 194.477C162.99 194.456 162.357 194.271 161.804 193.964C161.759 195.865 163.122 197.643 165.095 198.039C164.517 198.196 163.885 198.232 163.242 198.109C163.763 199.739 165.278 200.925 167.075 200.958C165.35 202.311 163.177 202.915 161 202.658C162.816 203.822 164.973 204.501 167.29 204.501C174.908 204.501 179.212 198.067 178.952 192.296C179.754 191.717 180.45 190.995 181 190.172Z" fill="#2C7566"/>
</svg>
